<?xml version="1.0" encoding="utf-8"?>
<!-- Generator: Adobe Illustrator 23.0.4, SVG Export Plug-In . SVG Version: 6.00 Build 0)  -->
<svg version="1.1" id="Layer_1" xmlns="http://www.w3.org/2000/svg" xmlns:xlink="http://www.w3.org/1999/xlink" x="0px" y="0px"
	 viewBox="0 0 100.4 100.4" style="enable-background:new 0 0 100.4 100.4;" xml:space="preserve">
<style type="text/css">
	.st0{fill:#00B9CB;}
</style>
<g>
	<path class="st0" d="M50,6.5c-17.2,0-31.3,13.6-31.3,30.2c0,5.6,1.6,11,4.7,15.8c0,0.1,0.1,0.2,0.1,0.2l24.7,39.9
		c0.3,0.4,0.7,0.7,1.3,0.7c0,0,0,0,0,0c0.5,0,1-0.3,1.3-0.7l25.8-39.9c0.1-0.1,0.1-0.2,0.1-0.3c3-4.8,4.6-10.2,4.6-15.8
		C81.3,20.1,67.3,6.5,50,6.5z M74,51.2c-0.1,0.1-0.1,0.2-0.1,0.3L49.5,89.2L26.2,51.5c0-0.1-0.1-0.2-0.1-0.3
		c-2.8-4.4-4.3-9.4-4.3-14.4c0-15,12.7-27.2,28.3-27.2c15.6,0,28.3,12.2,28.3,27.2C78.3,41.9,76.8,46.8,74,51.2z"/>
	<path class="st0" d="M62.6,22.6L29,36.5c-0.5,0.2-0.9,0.8-0.9,1.3c0,0.4,0.1,0.8,0.4,1.1c0.3,0.3,0.6,0.5,1,0.5l19.2,1.3l4,18.8
		c0.1,0.4,0.4,0.7,0.7,0.9c0.2,0.2,0.5,0.2,0.8,0.2c0.1,0,0.2,0,0.4,0c0.5-0.1,1-0.5,1.1-1.1l9.1-35.2c0.1-0.5,0-1.1-0.5-1.5
		C63.7,22.5,63.1,22.4,62.6,22.6z M54.2,52.8l-2.9-13.8c-0.1-0.7-0.7-1.1-1.4-1.2l-14-1L61,26.6L54.2,52.8z"/>
</g>
</svg>
