<?xml version="1.0" encoding="utf-8"?>
<!-- Generator: Adobe Illustrator 23.0.4, SVG Export Plug-In . SVG Version: 6.00 Build 0)  -->
<svg version="1.1" id="Layer_1" xmlns="http://www.w3.org/2000/svg" xmlns:xlink="http://www.w3.org/1999/xlink" x="0px" y="0px"
	 viewBox="0 0 100.4 100.4" style="enable-background:new 0 0 100.4 100.4;" xml:space="preserve">
<style type="text/css">
	.st0{fill:#00B9CB;}
</style>
<g>
	<path class="st0" d="M31,46.4L48,75c0.3,0.4,0.8,0.7,1.3,0.7c0,0,0,0,0,0c0.5,0,1-0.3,1.3-0.7l17.8-28.5c0-0.1,0.1-0.1,0.1-0.2
		c2.1-3.5,3.2-7.4,3.2-11.5c0-12.1-9.9-22-22-22c-12.1,0-22,9.9-22,22c0,4,1.1,8,3.2,11.5C30.9,46.3,30.9,46.3,31,46.4z M49.6,15.7
		c10.5,0,19,8.5,19,19c0,3.6-1,7.1-2.9,10.1c0,0.1-0.1,0.1-0.1,0.2L49.3,71.3L33.7,45.1c0-0.1-0.1-0.2-0.1-0.2
		c-1.9-3-2.9-6.5-2.9-10.1C30.6,24.2,39.2,15.7,49.6,15.7z"/>
	<path class="st0" d="M49.7,42.9c4.5,0,8.2-3.7,8.2-8.2s-3.7-8.2-8.2-8.2s-8.2,3.7-8.2,8.2S45.1,42.9,49.7,42.9z M49.7,29.5
		c2.9,0,5.2,2.3,5.2,5.2s-2.3,5.2-5.2,5.2c-2.9,0-5.2-2.3-5.2-5.2C44.5,31.9,46.8,29.5,49.7,29.5z"/>
</g>
</svg>
